<svg width="103" height="76" viewBox="0 0 103 76" fill="none" xmlns="http://www.w3.org/2000/svg">
<g filter="url(#filter0_d)">
<path d="M17 34.2414L25.1885 55L86 55V13L25.1885 13L17 34.2414Z" fill="white"/>
</g>
<path d="M32.9393 35.0607C32.3536 34.4749 32.3536 33.5251 32.9393 32.9393L42.4853 23.3934C43.0711 22.8076 44.0208 22.8076 44.6066 23.3934C45.1924 23.9792 45.1924 24.9289 44.6066 25.5147L36.1213 34L44.6066 42.4853C45.1924 43.0711 45.1924 44.0208 44.6066 44.6066C44.0208 45.1924 43.0711 45.1924 42.4853 44.6066L32.9393 35.0607ZM69 35.5H34V32.5H69V35.5Z" fill="black"/>
<defs>
<filter id="filter0_d" x="0" y="0" width="103" height="76" filterUnits="userSpaceOnUse" color-interpolation-filters="sRGB">
<feFlood flood-opacity="0" result="BackgroundImageFix"/>
<feColorMatrix in="SourceAlpha" type="matrix" values="0 0 0 0 0 0 0 0 0 0 0 0 0 0 0 0 0 0 127 0"/>
<feOffset dy="4"/>
<feGaussianBlur stdDeviation="8.5"/>
<feColorMatrix type="matrix" values="0 0 0 0 0 0 0 0 0 0 0 0 0 0 0 0 0 0 0.15 0"/>
<feBlend mode="normal" in2="BackgroundImageFix" result="effect1_dropShadow"/>
<feBlend mode="normal" in="SourceGraphic" in2="effect1_dropShadow" result="shape"/>
</filter>
</defs>
</svg>
